<?xml version="1.0" standalone="no"?>
<!DOCTYPE svg PUBLIC "-//W3C//DTD SVG 20010904//EN"
 "http://www.w3.org/TR/2001/REC-SVG-20010904/DTD/svg10.dtd">
<svg version="1.0" xmlns="http://www.w3.org/2000/svg"
 width="200.000000pt" height="200.000000pt" viewBox="0 0 200.000000 200.000000"
 preserveAspectRatio="xMidYMid meet">

<g transform="translate(0.000000,200.000000) scale(0.100000,-0.100000)"
fill="#000000" stroke="none">
<path d="M552 1995 c7 -21 30 -71 49 -107 22 -42 45 -221 29 -226 -6 -2 -10
-11 -10 -20 0 -9 -10 -30 -22 -47 -21 -31 -22 -31 -40 -13 -20 20 -38 24 -38
8 0 -5 6 -10 14 -10 8 0 23 -15 34 -33 11 -20 37 -42 64 -55 l45 -21 -1 -55
c0 -47 -4 -56 -23 -65 -13 -6 -26 -19 -30 -28 -9 -26 -52 -83 -63 -83 -5 0
-30 18 -56 40 -25 23 -48 39 -51 36 -6 -6 68 -74 90 -81 26 -9 19 -80 -12
-116 -20 -23 -28 -26 -40 -16 -12 10 -14 9 -8 -5 7 -21 -23 -45 -69 -53 -25
-5 -31 -2 -44 27 -12 26 -21 33 -43 33 -21 -1 -26 3 -22 16 9 26 -24 119 -56
160 -15 20 -30 51 -33 70 -8 44 22 79 84 97 68 20 75 19 78 -5 4 -25 72 -99
72 -78 0 7 -13 24 -29 38 -16 13 -31 35 -33 48 -4 28 -24 29 -98 7 -62 -18
-92 -53 -86 -99 l4 -36 -47 4 c-25 2 -73 0 -106 -5 -57 -9 -54 -9 44 -8 l103
1 33 -38 c35 -40 61 -114 56 -161 -2 -26 0 -28 22 -22 16 4 29 0 38 -10 14
-17 30 -101 29 -153 0 -19 6 -41 14 -50 8 -9 22 -35 31 -58 13 -33 26 -46 56
-60 29 -13 39 -23 39 -40 0 -61 24 -104 79 -141 l53 -35 -4 -49 c-3 -27 -8
-51 -11 -54 -5 -6 -65 10 -96 25 -8 4 -19 16 -25 26 -15 27 -27 39 -59 60 -16
10 -37 36 -49 59 -11 23 -26 48 -32 56 -7 8 -25 48 -40 88 l-29 74 -34 -4 -35
-4 5 58 c3 32 2 58 -2 58 -9 0 -41 55 -51 88 -8 26 -8 26 -9 3 -1 -22 37 -101
48 -101 3 0 5 -28 3 -62 -2 -43 -8 -67 -20 -75 -13 -11 -13 -13 -1 -13 8 0 22
9 32 20 33 39 53 26 83 -52 15 -40 33 -80 40 -88 6 -8 21 -33 32 -56 12 -23
33 -49 49 -59 35 -23 53 -41 53 -53 0 -15 33 -39 65 -46 81 -19 82 -19 88 6 4
12 7 40 7 61 0 25 5 37 14 37 17 0 36 51 36 99 l1 36 20 -25 c12 -14 48 -54
80 -90 75 -84 117 -137 124 -160 11 -34 32 -30 54 11 13 22 21 44 19 50 -2 7
-12 -7 -22 -30 -21 -45 -31 -51 -41 -22 -7 24 -48 77 -128 165 -75 83 -107
126 -107 143 0 7 10 21 22 32 12 12 29 32 38 46 l17 25 42 -50 c46 -55 61 -60
93 -30 21 20 21 20 36 -1 13 -19 21 -21 72 -15 55 6 59 5 79 -21 11 -15 24
-32 28 -38 5 -5 9 -83 11 -173 2 -89 6 -184 10 -210 4 -26 6 -71 4 -99 l-3
-53 -51 0 c-48 0 -50 1 -43 23 15 44 18 117 5 117 -9 0 -11 10 -6 30 3 19 2
29 -4 25 -13 -8 -13 -65 0 -65 14 0 13 -42 -2 -89 -12 -39 -12 -39 -77 -45
-35 -4 -68 -3 -73 2 -4 4 -10 35 -12 68 -4 56 -46 165 -46 118 0 -11 7 -29 15
-42 9 -12 18 -50 21 -84 2 -34 7 -65 12 -69 4 -5 66 -5 138 -2 l132 6 4 60 c3
33 1 83 -3 111 -5 28 -10 123 -11 211 -2 88 -6 165 -11 170 -54 71 -67 89 -67
95 0 4 -21 34 -46 66 -56 71 -94 148 -94 191 0 41 -9 63 -26 63 -10 0 -11 6
-4 26 16 40 12 63 -17 101 -20 26 -26 45 -25 73 2 27 -4 46 -21 66 -13 16 -27
36 -30 44 -4 8 -25 42 -46 75 -22 33 -54 87 -72 120 -17 33 -35 62 -39 65 -4
3 -11 21 -15 40 l-7 34 23 -17 c13 -10 41 -26 61 -35 23 -10 38 -24 38 -34 0
-14 9 -18 38 -18 57 0 87 36 88 103 1 93 1 93 22 66 11 -13 27 -46 37 -72 21
-56 53 -82 90 -73 24 6 25 4 25 -36 0 -24 10 -68 21 -98 28 -70 35 -143 19
-191 -11 -33 -11 -42 4 -63 9 -14 16 -39 16 -56 0 -17 12 -52 26 -76 26 -44
28 -45 64 -39 28 5 39 3 43 -8 3 -8 1 -63 -5 -121 l-10 -107 27 -39 c20 -28
26 -46 21 -64 -4 -17 2 -40 19 -72 14 -26 24 -59 24 -73 -4 -83 3 -186 12
-192 6 -3 8 -16 5 -27 -8 -23 5 -53 35 -83 16 -16 20 -32 19 -77 -3 -117 -5
-112 43 -111 34 0 46 5 65 30 13 16 19 29 13 29 -5 0 -18 -11 -29 -25 -14 -17
-30 -25 -51 -25 -30 0 -31 1 -31 49 0 57 16 69 62 45 16 -8 32 -13 35 -10 9 9
-59 38 -78 33 -15 -4 -19 0 -19 23 0 17 -10 40 -25 56 -27 29 -28 33 -25 77 1
15 -3 27 -8 27 -5 0 -12 27 -15 61 -5 45 -3 68 9 91 17 33 12 32 119 8 120
-27 125 -30 125 -54 0 -51 20 -81 70 -104 33 -15 50 -30 54 -47 10 -40 34 -29
53 24 10 29 25 52 35 54 21 6 25 69 7 114 -12 27 -14 44 -17 111 -2 38 -40 82
-72 82 -11 0 -81 -29 -155 -65 -74 -36 -141 -65 -150 -65 -8 0 -15 -4 -15 -9
0 -5 -13 -11 -30 -13 -39 -6 -39 12 0 35 17 10 39 36 50 58 20 38 42 50 55 29
10 -17 62 -11 97 10 18 11 40 20 49 20 26 0 47 32 54 83 7 45 9 47 39 47 17 0
42 -7 54 -16 12 -8 22 -11 22 -5 0 17 -36 31 -77 31 -30 0 -43 6 -63 30 -14
17 -33 30 -42 30 -23 0 -24 42 -3 60 10 8 15 25 13 43 l-3 31 75 3 c41 2 104
3 140 3 36 0 90 7 120 15 36 9 41 12 15 8 -22 -4 -78 -7 -125 -8 -75 0 -86 2
-97 20 -20 32 -15 81 10 112 13 15 26 36 30 46 3 9 13 17 20 17 38 0 73 103
54 158 -10 29 -14 32 -54 32 -39 0 -49 -5 -83 -42 -22 -24 -40 -49 -40 -55 0
-24 -47 -43 -108 -44 -33 -1 -65 2 -71 6 -6 3 -11 0 -11 -7 0 -7 -22 -36 -48
-63 -27 -28 -51 -57 -55 -65 -10 -28 -28 12 -23 53 2 20 0 35 -5 31 -5 -3 -9
-19 -9 -36 0 -17 -8 -45 -19 -62 -10 -17 -21 -51 -25 -75 -7 -45 -35 -99 -37
-71 0 8 -2 42 -3 75 -1 33 -7 86 -14 118 l-11 58 33 34 c18 18 36 47 40 65 3
18 15 39 26 47 24 17 24 22 3 96 -13 41 -30 71 -55 97 -21 21 -38 41 -38 44 0
4 -11 24 -25 46 -14 22 -25 47 -25 56 0 9 -9 18 -20 21 -12 3 -27 18 -36 34
-9 17 -23 29 -35 29 -25 0 -35 -25 -19 -45 18 -21 -2 -65 -30 -65 -25 0 -35
-36 -21 -74 15 -37 14 -43 -5 -50 -27 -10 -59 19 -79 71 -22 57 -45 92 -62 93
-14 0 -24 -48 -21 -102 1 -27 -4 -44 -22 -63 -30 -32 -80 -35 -80 -5 0 11 -6
20 -13 20 -6 0 -35 15 -64 33 -49 31 -51 34 -57 89 -4 32 -15 67 -26 81 -11
14 -20 34 -20 45 0 11 -9 30 -21 43 -11 13 -19 20 -17 14z m582 -124 c9 -16
24 -31 36 -34 11 -3 20 -12 20 -21 0 -9 11 -34 25 -56 14 -22 25 -42 25 -46 0
-3 16 -23 36 -43 67 -68 90 -193 32 -178 -18 5 -26 -8 -9 -15 18 -6 -2 -61
-36 -94 l-34 -35 11 -67 c22 -119 23 -151 9 -156 -61 -19 -66 -17 -93 28 -14
25 -26 59 -26 76 0 17 -7 41 -16 55 -12 19 -13 28 -4 45 17 32 7 146 -18 210
-12 30 -22 71 -22 91 0 20 -6 57 -14 83 -17 55 -13 74 17 78 28 4 46 51 30 77
-12 18 -8 31 8 31 5 0 15 -13 23 -29z m-446 -273 c18 -35 51 -90 72 -123 22
-33 43 -67 47 -75 3 -8 17 -28 30 -43 26 -33 29 -54 9 -82 -7 -11 -17 -35 -21
-53 -4 -18 -22 -48 -41 -66 -19 -18 -34 -38 -34 -43 0 -6 -13 -25 -30 -43 -43
-46 -41 -94 7 -163 20 -28 40 -54 45 -55 11 -5 -16 -49 -48 -80 -23 -22 -28
-43 -24 -110 2 -39 -18 -102 -32 -102 -6 0 -34 15 -62 34 -60 40 -71 69 -81
215 -6 90 -23 141 -47 141 -5 0 -1 -12 10 -27 19 -28 41 -169 25 -161 -53 26
-64 36 -78 72 -9 23 -22 47 -28 55 -7 8 -13 30 -13 50 -1 20 -5 48 -9 64 -6
23 -4 27 14 27 36 0 84 25 127 66 33 33 40 46 41 82 2 30 10 52 28 74 15 18
31 42 36 55 5 13 19 28 33 34 21 10 24 17 24 75 l1 65 -44 20 c-66 31 -72 43
-41 80 14 17 26 38 26 48 0 18 8 31 20 31 3 0 20 -28 38 -62z m1157 -117 c13
-60 -17 -141 -52 -141 -7 0 -17 -8 -20 -17 -4 -10 -17 -31 -30 -46 -13 -16
-23 -35 -23 -44 0 -12 -9 -14 -47 -8 -40 5 -52 3 -70 -15 -13 -11 -23 -25 -23
-29 0 -5 -20 -14 -45 -20 -36 -9 -48 -17 -55 -39 -16 -43 -26 -57 -46 -61 -10
-2 -44 -18 -74 -36 -30 -18 -66 -36 -79 -40 -23 -7 -24 -6 -19 33 3 22 15 51
27 63 11 12 23 43 27 68 9 64 27 90 57 84 18 -4 27 0 31 14 3 10 26 38 51 62
25 24 45 47 45 50 0 4 32 8 71 9 71 1 119 19 119 45 0 6 18 31 40 55 31 34 46
42 74 42 30 0 35 -4 41 -29z m-944 -341 c-14 -47 -14 -50 3 -50 17 0 26 -21
26 -63 1 -43 33 -111 84 -177 24 -30 48 -65 54 -76 11 -20 9 -22 -35 -29 -41
-6 -50 -4 -64 14 -22 26 -30 26 -59 -1 l-23 -21 -31 34 c-111 125 -156 191
-156 228 0 18 11 41 30 61 17 18 30 37 30 43 0 5 15 25 34 43 19 18 37 48 41
66 11 51 15 52 47 7 28 -39 29 -45 19 -79z m797 70 c16 0 22 -6 22 -21 0 -11
5 -29 10 -39 9 -16 7 -20 -12 -25 -13 -3 -43 -4 -68 -3 -44 3 -45 3 -45 -29 0
-18 -6 -38 -12 -44 -20 -20 -17 -79 4 -79 9 0 29 -14 45 -32 28 -32 36 -62 18
-73 -5 -3 -7 -12 -3 -21 7 -18 -24 -54 -46 -54 -9 0 -31 -9 -49 -20 -35 -22
-67 -26 -77 -10 -3 6 -14 10 -23 10 -15 0 -17 10 -14 71 7 140 -14 154 -119
80 -40 -28 -74 -49 -77 -47 -2 3 -1 25 2 50 6 39 11 45 35 51 16 3 51 20 77
37 27 17 60 34 73 37 26 7 35 19 51 63 7 22 19 30 55 39 25 6 45 15 45 20 0
18 46 50 65 45 11 -3 30 -6 43 -6z m-274 -266 c26 -25 21 -137 -8 -199 -26
-57 -68 -92 -85 -72 -18 23 -34 72 -32 102 1 18 -6 41 -18 56 l-20 26 72 51
c40 28 73 51 74 51 1 1 9 -6 17 -15z m331 -199 c23 -22 32 -59 26 -104 -2 -7
5 -31 13 -52 22 -54 21 -100 -2 -106 -10 -2 -25 -25 -37 -56 -18 -52 -19 -52
-29 -24 -7 18 -26 35 -57 50 -49 22 -69 53 -69 103 0 25 -29 38 -111 49 -26 3
-55 12 -65 20 -18 14 -18 14 1 15 11 1 79 30 150 65 72 35 136 64 143 64 7 1
24 -10 37 -24z"/>
<path d="M1600 848 c-19 -5 -47 -12 -62 -15 -16 -3 -28 -9 -28 -13 0 -4 17 -3
38 2 20 5 49 12 65 15 15 3 27 9 27 14 0 5 -1 9 -2 8 -2 -1 -19 -5 -38 -11z"/>
<path d="M190 1753 c0 -5 9 -18 21 -29 28 -25 89 -117 89 -134 0 -7 -18 -28
-40 -47 -43 -37 -56 -84 -22 -82 10 0 12 3 5 6 -23 9 -14 31 27 66 50 42 51
64 6 131 -36 55 -86 106 -86 89z"/>
<path d="M1481 1490 c0 -36 3 -71 8 -79 5 -8 7 13 4 55 -6 93 -11 103 -12 24z"/>
<path d="M1251 529 c-41 -8 -87 -36 -76 -47 3 -3 14 3 24 12 11 10 38 20 60
23 23 3 44 10 47 14 6 10 6 10 -55 -2z"/>
<path d="M1291 238 c-1 -17 75 -65 86 -54 3 2 -13 14 -35 25 -22 11 -42 26
-45 33 -4 8 -6 7 -6 -4z"/>
</g>
</svg>
